<svg width="308" height="62.00000000000001" xmlns="http://www.w3.org/2000/svg">

 <g>
  <title>background</title>
  <rect fill="none" id="canvas_background" height="602" width="802" y="-1" x="-1"/>
 </g>
 <g>
  <title>Layer 1</title>
  <path id="svg_13" fill="#FFB1B1" d="m142.80657,50.69594c-0.1389,1.1807 -0.5789,2.0931 -1.3199,2.7371c-0.7359,0.6389 -1.7162,0.9584 -2.9409,0.9584c-1.3277,0 -2.3929,-0.4728 -3.1957,-1.4184c-0.7976,-0.9456 -1.1964,-2.2107 -1.1964,-3.7952l0,-1.0734c0,-1.0376 0.1853,-1.9499 0.5558,-2.7371c0.3756,-0.7871 0.9056,-1.3903 1.5901,-1.8094c0.6844,-0.4243 1.4768,-0.6364 2.3774,-0.6364c1.1939,0 2.151,0.3323 2.8714,0.9967c0.7205,0.6594 1.1399,1.5743 1.2582,2.7448l-1.4897,0c-0.1287,-0.8893 -0.4091,-1.5334 -0.8414,-1.9321c-0.4271,-0.3986 -1.0266,-0.598 -1.7985,-0.598c-0.9469,0 -1.6905,0.3476 -2.2308,1.0427c-0.5352,0.6952 -0.8027,1.6842 -0.8027,2.9672l0,1.081c0,1.2114 0.2547,2.1749 0.7641,2.8905c0.5095,0.7156 1.2222,1.0734 2.1382,1.0734c0.8233,0 1.4537,-0.184 1.8911,-0.552c0.4426,-0.3732 0.7359,-1.0198 0.88,-1.9398l1.4897,0z"/>
  <path id="svg_14" fill="#FFB1B1" d="m144.23457,50.01354c0,-0.8127 0.1595,-1.5436 0.4786,-2.1927c0.3242,-0.6492 0.7719,-1.1501 1.3431,-1.5028c0.5764,-0.3527 1.2324,-0.529 1.9684,-0.529c1.137,0 2.056,0.391 2.756,1.173c0.705,0.7821 1.057,1.8222 1.057,3.1205l0,0.0997c0,0.8076 -0.157,1.5334 -0.471,2.1774c-0.309,0.639 -0.754,1.1373 -1.335,1.4951c-0.577,0.3578 -1.24,0.5367 -1.992,0.5367c-1.132,0 -2.0503,-0.391 -2.7553,-1.1731c-0.6999,-0.782 -1.0498,-1.817 -1.0498,-3.1051l0,-0.0997zm1.4357,0.1687c0,0.92 0.2136,1.6586 0.6404,2.2158c0.433,0.5571 1.009,0.8357 1.729,0.8357c0.726,0 1.302,-0.2811 1.729,-0.8434c0.427,-0.5674 0.641,-1.3596 0.641,-2.3768c0,-0.9098 -0.219,-1.6458 -0.656,-2.2081c-0.432,-0.5673 -1.009,-0.851 -1.729,-0.851c-0.705,0 -1.274,0.2785 -1.706,0.8357c-0.4322,0.5571 -0.6484,1.3545 -0.6484,2.3921z"/>
  <path id="svg_15" fill="#FFB1B1" d="m154.97167,45.94234l0.039,0.9201c0.612,-0.7156 1.438,-1.0734 2.477,-1.0734c1.168,0 1.963,0.4447 2.385,1.3341c0.278,-0.3987 0.639,-0.7207 1.081,-0.9661c0.448,-0.2453 0.975,-0.368 1.582,-0.368c1.832,0 2.764,0.9635 2.795,2.8905l0,5.5586l-1.428,0l0,-5.4743c0,-0.5929 -0.137,-1.035 -0.409,-1.3264c-0.273,-0.2965 -0.731,-0.4447 -1.374,-0.4447c-0.53,0 -0.97,0.1585 -1.32,0.4754c-0.35,0.3118 -0.553,0.7335 -0.61,1.265l0,5.505l-1.436,0l0,-5.436c0,-1.2062 -0.594,-1.8094 -1.783,-1.8094c-0.936,0 -1.577,0.3961 -1.922,1.1884l0,6.057l-1.428,0l0,-8.2958l1.351,0z"/>
  <path id="svg_16" fill="#FFB1B1" d="m169.04367,54.23814l-1.428,0l0,-8.2958l1.428,0l0,8.2958zm-1.544,-10.4962c0,-0.23 0.069,-0.4242 0.208,-0.5827c0.144,-0.1585 0.355,-0.2377 0.633,-0.2377c0.278,0 0.489,0.0792 0.633,0.2377c0.144,0.1585 0.216,0.3527 0.216,0.5827c0,0.23 -0.072,0.4217 -0.216,0.575c-0.144,0.1534 -0.355,0.23 -0.633,0.23c-0.278,0 -0.489,-0.0766 -0.633,-0.23c-0.139,-0.1533 -0.208,-0.345 -0.208,-0.575z"/>
  <path id="svg_17" fill="#FFB1B1" d="m170.98867,50.02124c0,-1.2727 0.303,-2.295 0.911,-3.0668c0.607,-0.7769 1.402,-1.1654 2.385,-1.1654c0.977,0 1.752,0.3322 2.323,0.9967l0,-4.3242l1.428,0l0,11.7766l-1.312,0l-0.07,-0.8894c-0.571,0.6951 -1.366,1.0427 -2.385,1.0427c-0.967,0 -1.757,-0.3936 -2.369,-1.1807c-0.608,-0.7872 -0.911,-1.8146 -0.911,-3.0822l0,-0.1073zm1.428,0.161c0,0.9405 0.195,1.6765 0.586,2.2081c0.391,0.5316 0.932,0.7974 1.621,0.7974c0.906,0 1.567,-0.4038 1.984,-1.2114l0,-3.8105c-0.427,-0.7821 -1.083,-1.1731 -1.968,-1.1731c-0.7,0 -1.246,0.2684 -1.637,0.8051c-0.391,0.5366 -0.586,1.3315 -0.586,2.3844z"/>
  <path id="svg_18" fill="#FFB1B1" d="m185.41467,54.23814c-0.082,-0.1636 -0.149,-0.455 -0.2,-0.8741c-0.664,0.6849 -1.457,1.0274 -2.378,1.0274c-0.823,0 -1.5,-0.23 -2.03,-0.69c-0.525,-0.4652 -0.787,-1.053 -0.787,-1.7634c0,-0.8639 0.329,-1.5335 0.988,-2.0088c0.664,-0.4805 1.595,-0.7207 2.794,-0.7207l1.39,0l0,-0.6517c0,-0.4958 -0.15,-0.8894 -0.448,-1.1807c-0.299,-0.2965 -0.739,-0.4447 -1.32,-0.4447c-0.51,0 -0.937,0.1278 -1.281,0.3833c-0.345,0.2556 -0.518,0.5648 -0.518,0.9277l-1.435,0c0,-0.414 0.146,-0.8127 0.44,-1.196c0.298,-0.3885 0.699,-0.6952 1.204,-0.9201c0.509,-0.2249 1.068,-0.3373 1.675,-0.3373c0.962,0 1.716,0.2402 2.261,0.7207c0.546,0.4753 0.829,1.1322 0.85,1.9704l0,3.8182c0,0.7616 0.097,1.3673 0.293,1.8171l0,0.1227l-1.498,0zm-2.369,-1.0811c0.447,0 0.872,-0.115 1.273,-0.345c0.402,-0.23 0.692,-0.529 0.873,-0.897l0,-1.7021l-1.12,0c-1.749,0 -2.624,0.5085 -2.624,1.5257c0,0.4447 0.149,0.7923 0.448,1.0427c0.298,0.2505 0.681,0.3757 1.15,0.3757z"/>
  <path id="svg_27" fill="#FFB1B1" d="m189.8035,56.46154l-0.811,-0.552c0.484,-0.6696 0.736,-1.3596 0.757,-2.0701l0,-1.2804l1.397,0l0,1.1117c0,0.5162 -0.129,1.0325 -0.386,1.5487c-0.252,0.5163 -0.571,0.9303 -0.957,1.2421z"/>
  <path id="svg_28" fill="#FFB1B1" d="m201.7365,52.03764c0,-0.3833 -0.146,-0.6798 -0.44,-0.8894c-0.288,-0.2146 -0.795,-0.3986 -1.52,-0.552c-0.721,-0.1533 -1.295,-0.3373 -1.722,-0.552c-0.422,-0.2147 -0.735,-0.4703 -0.941,-0.7667c-0.201,-0.2965 -0.301,-0.6492 -0.301,-1.0581c0,-0.6798 0.288,-1.2548 0.864,-1.725c0.582,-0.4703 1.323,-0.7054 2.223,-0.7054c0.947,0 1.714,0.2428 2.3,0.7284c0.592,0.4855 0.888,1.1066 0.888,1.863l-1.436,0c0,-0.3884 -0.167,-0.7232 -0.501,-1.0043c-0.33,-0.2812 -0.746,-0.4217 -1.251,-0.4217c-0.52,0 -0.926,0.1124 -1.219,0.3373c-0.294,0.2249 -0.44,0.5188 -0.44,0.8817c0,0.3425 0.136,0.6006 0.409,0.7744c0.272,0.1738 0.764,0.3399 1.474,0.4984c0.715,0.1584 1.294,0.3475 1.737,0.5673c0.442,0.2198 0.769,0.4856 0.98,0.7974c0.216,0.3067 0.324,0.6824 0.324,1.1271c0,0.7411 -0.298,1.3366 -0.895,1.7864c-0.597,0.4447 -1.371,0.667 -2.323,0.667c-0.669,0 -1.261,-0.1176 -1.776,-0.3527c-0.514,-0.2351 -0.918,-0.5622 -1.212,-0.9814c-0.288,-0.4242 -0.432,-0.8817 -0.432,-1.3724l1.428,0c0.026,0.4754 0.216,0.8536 0.571,1.1348c0.36,0.276 0.834,0.414 1.421,0.414c0.54,0 0.972,-0.1074 1.296,-0.322c0.33,-0.2198 0.494,-0.5112 0.494,-0.8741z"/>
  <path id="svg_29" fill="#FFB1B1" d="m206.5765,54.23814l-1.428,0l0,-8.2958l1.428,0l0,8.2958zm-1.544,-10.4962c0,-0.23 0.07,-0.4242 0.209,-0.5827c0.144,-0.1585 0.355,-0.2377 0.633,-0.2377c0.278,0 0.489,0.0792 0.633,0.2377c0.144,0.1585 0.216,0.3527 0.216,0.5827c0,0.23 -0.072,0.4217 -0.216,0.575c-0.144,0.1534 -0.355,0.23 -0.633,0.23c-0.278,0 -0.489,-0.0766 -0.633,-0.23c-0.139,-0.1533 -0.209,-0.345 -0.209,-0.575z"/>
  <path id="svg_30" fill="#FFB1B1" d="m210.2125,45.94234l0.038,0.9201c0.613,-0.7156 1.439,-1.0734 2.478,-1.0734c1.168,0 1.963,0.4447 2.385,1.3341c0.278,-0.3987 0.638,-0.7207 1.081,-0.9661c0.448,-0.2453 0.975,-0.368 1.582,-0.368c1.832,0 2.764,0.9635 2.794,2.8905l0,5.5586l-1.428,0l0,-5.4743c0,-0.5929 -0.136,-1.035 -0.409,-1.3264c-0.272,-0.2965 -0.73,-0.4447 -1.374,-0.4447c-0.53,0 -0.97,0.1585 -1.32,0.4754c-0.349,0.3118 -0.553,0.7335 -0.609,1.265l0,5.505l-1.436,0l0,-5.436c0,-1.2062 -0.594,-1.8094 -1.783,-1.8094c-0.937,0 -1.577,0.3961 -1.922,1.1884l0,6.057l-1.428,0l0,-8.2958l1.351,0z"/>
  <path id="svg_31" fill="#FFB1B1" d="m222.7635,53.49444c0,-0.2454 0.072,-0.4498 0.216,-0.6134c0.149,-0.1636 0.37,-0.2453 0.664,-0.2453c0.293,0 0.514,0.0817 0.663,0.2453c0.155,0.1636 0.232,0.368 0.232,0.6134c0,0.2351 -0.077,0.4319 -0.232,0.5903c-0.149,0.1585 -0.37,0.2377 -0.663,0.2377c-0.294,0 -0.515,-0.0792 -0.664,-0.2377c-0.144,-0.1584 -0.216,-0.3552 -0.216,-0.5903z"/>
  <path id="svg_32" fill="#FFB84D" d="m32,16.3863c-3.9628,0 -7.7103,-0.6244 -10.5519,-1.7581c-3.2633,-1.3019 -5.0606,-3.2 -5.0605,-5.34478c0,-2.14467 1.7973,-4.04276 5.0606,-5.34464c2.0331,-0.81104 4.5312,-1.35971 7.2389,-1.6073c-0.4351,-0.56838 -0.395,-1.38624 0.1232,-1.90693c0.5632,-0.56607 1.4764,-0.56607 2.0397,0l2.1697,2.1809c0.5633,0.56607 0.5633,1.48395 0,2.05001l-2.1698,2.18076c-0.2816,0.2831 -0.6508,0.42458 -1.0199,0.42458c-0.3691,0 -0.7382,-0.14148 -1.0199,-0.42458c-0.4234,-0.42574 -0.5283,-1.05037 -0.3148,-1.57469c-2.2528,0.23774 -4.3091,0.70407 -5.9829,1.37189c-2.3917,0.95412 -3.2402,2.02392 -3.2402,2.65c0,0.62607 0.8485,1.69588 3.2402,2.64998c2.511,1.0018 5.8805,1.5535 9.4876,1.5535c3.6071,0 6.9766,-0.5517 9.4877,-1.5535c2.3916,-0.9541 3.2402,-2.02376 3.2402,-2.64998c0,-1.01617 -1.9711,-2.52069 -5.7382,-3.43031c-0.7745,-0.187 -1.2515,-0.96963 -1.0655,-1.74806c0.186,-0.77843 0.965,-1.25795 1.7393,-1.07081c5.0518,1.21968 7.949,3.49757 7.949,6.24932c0,2.14464 -1.7973,4.04274 -5.0605,5.34464c-2.8417,1.1337 -6.5892,1.7581 -10.552,1.7581zm22.0449,6.5453c8.2279,2.6316 9.9551,5.9617 9.9551,8.2919c0,0.038 -0.0006,0.0763 -0.0014,0.1147c-0.0309,8.1904 -3.3638,15.8827 -9.395,21.6709c-6.041,5.7979 -14.0686,8.9909 -22.6036,8.9909c-8.535,0 -16.5624,-3.193 -22.60364,-8.9909c-6.03111,-5.7882 -9.36405,-13.4805 -9.39492,-21.6709c-0.00086,-0.0384 -0.00144,-0.0767 -0.00144,-0.1147c0,-2.3302 1.72719,-5.6603 9.95526,-8.2921c5.90924,-1.8898 13.73824,-2.9306 22.04484,-2.9306c5.5783,0 10.9401,0.4701 15.6509,1.3507l3.5904,-5.4817c0.4381,-0.6687 1.3324,-0.854 1.9978,-0.4138c0.6653,0.4403 0.8497,1.3392 0.4116,2.0079l-2.969,4.533c1.1771,0.2835 2.3015,0.5952 3.3631,0.9347zm7.0704,8.2919c0,-1.8431 -3.0443,-3.9617 -7.9452,-5.5292c-1.2985,-0.4153 -2.6985,-0.7871 -4.1802,-1.1141l-5.9256,9.0472c4.4305,0.5414 8.4738,1.405 11.7805,2.5409c3.9094,-1.4856 6.2705,-3.322 6.2705,-4.9448zm-46.7941,6.4868c5.0865,1.1922 11.2202,1.8366 17.6788,1.8366c1.2755,0 2.5381,-0.0254 3.7825,-0.0749l2.2312,-3.4064c-1.9628,-0.128 -3.9766,-0.1946 -6.0141,-0.1946c-6.4178,0 -12.6031,0.6551 -17.6784,1.8393zm35.3577,0c-2.5535,-0.5958 -5.3884,-1.0572 -8.3923,-1.369l-1.9101,2.9164c3.7143,-0.2977 7.2027,-0.8209 10.3024,-1.5474zm-17.679,-14.8102c-8.0178,0 -15.5361,0.9924 -21.1702,2.7942c-4.90071,1.5673 -7.94504,3.6861 -7.94504,5.5292c0,1.623 2.36124,3.4593 6.27068,4.9448c5.92166,-2.0343 14.20426,-3.1966 22.84406,-3.1966c2.6633,0 5.2918,0.1113 7.8286,0.3236l6.0963,-9.3077c-4.2363,-0.7104 -8.9852,-1.0875 -13.9244,-1.0875zm-28.58936,13.6063c2.58566,12.8539 14.42126,22.5944 28.58946,22.5944c14.1682,0 26.0038,-9.7403 28.5895,-22.5944c-1.4976,1.0406 -3.6064,2.0694 -6.5446,3.009c-5.9091,1.8899 -13.7382,2.9307 -22.0449,2.9307c-8.3067,0 -16.1357,-1.0408 -22.04488,-2.9307c-2.93818,-0.9397 -5.04701,-1.9685 -6.54458,-3.009z" clip-rule="evenodd" fill-rule="evenodd"/>
  <text xml:space="preserve" text-anchor="start" font-family="Helvetica, Arial, sans-serif" font-size="30" id="svg_33" y="33.11537" x="82.26951" stroke-opacity="null" stroke-width="0" stroke="null" fill="#ffffff">OneRecipe</text>
 </g>
</svg>
